<svg width="353" height="90" viewBox="0 0 353 90" fill="none" xmlns="http://www.w3.org/2000/svg">
<g id="entzo.">
<path d="M34.816 89.344C28.0747 89.344 22.0587 87.9787 16.768 85.248C11.5627 82.432 7.46667 78.5493 4.48 73.6C1.49333 68.6507 0 63.0613 0 56.832C0 50.6027 1.45067 45.056 4.352 40.192C7.33867 35.2427 11.3493 31.36 16.384 28.544C21.4187 25.728 27.0933 24.32 33.408 24.32C39.552 24.32 44.9707 25.6427 49.664 28.288C54.3573 30.9333 58.0267 34.6027 60.672 39.296C63.4027 43.9893 64.768 49.3653 64.768 55.424C64.768 56.5333 64.6827 57.728 64.512 59.008C64.4267 60.2027 64.2133 61.6107 63.872 63.232L10.24 63.36V49.92L55.552 49.792L47.104 55.424C47.0187 51.84 46.464 48.896 45.44 46.592C44.416 44.2027 42.88 42.4107 40.832 41.216C38.8693 39.936 36.4373 39.296 33.536 39.296C30.464 39.296 27.776 40.0213 25.472 41.472C23.2533 42.8373 21.504 44.8 20.224 47.36C19.0293 49.92 18.432 53.0347 18.432 56.704C18.432 60.3733 19.072 63.5307 20.352 66.176C21.7173 68.736 23.5947 70.7413 25.984 72.192C28.4587 73.5573 31.36 74.24 34.688 74.24C37.76 74.24 40.5333 73.728 43.008 72.704C45.4827 71.5947 47.6587 69.9733 49.536 67.84L60.288 78.592C57.216 82.176 53.504 84.864 49.152 86.656C44.8 88.448 40.0213 89.344 34.816 89.344Z" fill="#464646"/>
<path d="M115.309 87.936V52.48C115.309 49.2373 114.285 46.6347 112.237 44.672C110.274 42.624 107.757 41.6 104.685 41.6C102.552 41.6 100.674 42.0693 99.053 43.008C97.4317 43.8613 96.1517 45.1413 95.213 46.848C94.2743 48.4693 93.805 50.3467 93.805 52.48L86.253 48.768C86.253 43.904 87.3197 39.6373 89.453 35.968C91.5863 32.2987 94.5303 29.4827 98.285 27.52C102.125 25.472 106.434 24.448 111.213 24.448C115.821 24.448 119.874 25.5573 123.373 27.776C126.957 29.9093 129.773 32.768 131.821 36.352C133.869 39.936 134.893 43.8613 134.893 48.128V87.936H115.309ZM74.221 87.936V25.728H93.805V87.936H74.221Z" fill="#464646"/>
<path d="M155.553 87.936V0H175.137V87.936H155.553ZM141.473 42.368V25.728H189.217V42.368H141.473Z" fill="#464646"/>
<path d="M192.128 76.416L223.36 37.12H247.168L215.936 76.416H192.128ZM192.128 87.936V76.416L206.08 71.552H246.4V87.936H192.128ZM194.432 42.112V25.728H247.168V37.12L233.344 42.112H194.432Z" fill="#464646"/>
<path d="M285.923 89.344C279.523 89.344 273.72 87.936 268.515 85.12C263.395 82.2187 259.342 78.2933 256.355 73.344C253.368 68.3947 251.875 62.848 251.875 56.704C251.875 50.56 253.368 45.056 256.355 40.192C259.342 35.328 263.395 31.488 268.515 28.672C273.635 25.7707 279.438 24.32 285.923 24.32C292.408 24.32 298.211 25.728 303.331 28.544C308.451 31.36 312.504 35.2427 315.491 40.192C318.478 45.056 319.971 50.56 319.971 56.704C319.971 62.848 318.478 68.3947 315.491 73.344C312.504 78.2933 308.451 82.2187 303.331 85.12C298.211 87.936 292.408 89.344 285.923 89.344ZM285.923 71.552C288.739 71.552 291.214 70.9547 293.347 69.76C295.48 68.48 297.102 66.7307 298.211 64.512C299.406 62.208 300.003 59.6053 300.003 56.704C300.003 53.8027 299.406 51.2853 298.211 49.152C297.016 46.9333 295.352 45.2267 293.219 44.032C291.171 42.752 288.739 42.112 285.923 42.112C283.192 42.112 280.76 42.752 278.627 44.032C276.494 45.2267 274.83 46.9333 273.635 49.152C272.44 51.3707 271.843 53.9307 271.843 56.832C271.843 59.648 272.44 62.208 273.635 64.512C274.83 66.7307 276.494 68.48 278.627 69.76C280.76 70.9547 283.192 71.552 285.923 71.552Z" fill="#464646"/>
<path d="M340.384 89.344C337.056 89.344 334.283 88.192 332.064 85.888C329.845 83.584 328.736 80.8107 328.736 77.568C328.736 74.1547 329.845 71.3387 332.064 69.12C334.283 66.816 337.056 65.664 340.384 65.664C343.797 65.664 346.571 66.816 348.704 69.12C350.923 71.3387 352.032 74.1547 352.032 77.568C352.032 80.8107 350.923 83.584 348.704 85.888C346.571 88.192 343.797 89.344 340.384 89.344Z" fill="#6495ED"/>
</g>
</svg>
