<svg width="99" height="66" viewBox="0 0 99 66" fill="none" xmlns="http://www.w3.org/2000/svg">
<g id="e.">
<path d="M34.816 65.024C28.0747 65.024 22.0587 63.6587 16.768 60.928C11.5627 58.112 7.46667 54.2293 4.48 49.28C1.49333 44.3307 0 38.7413 0 32.512C0 26.2827 1.45067 20.736 4.352 15.872C7.33867 10.9227 11.3493 7.04 16.384 4.224C21.4187 1.408 27.0933 0 33.408 0C39.552 0 44.9707 1.32267 49.664 3.968C54.3573 6.61333 58.0267 10.2827 60.672 14.976C63.4027 19.6693 64.768 25.0453 64.768 31.104C64.768 32.2133 64.6827 33.408 64.512 34.688C64.4267 35.8827 64.2133 37.2907 63.872 38.912L10.24 39.04V25.6L55.552 25.472L47.104 31.104C47.0187 27.52 46.464 24.576 45.44 22.272C44.416 19.8827 42.88 18.0907 40.832 16.896C38.8693 15.616 36.4373 14.976 33.536 14.976C30.464 14.976 27.776 15.7013 25.472 17.152C23.2533 18.5173 21.504 20.48 20.224 23.04C19.0293 25.6 18.432 28.7147 18.432 32.384C18.432 36.0533 19.072 39.2107 20.352 41.856C21.7173 44.416 23.5947 46.4213 25.984 47.872C28.4587 49.2373 31.36 49.92 34.688 49.92C37.76 49.92 40.5333 49.408 43.008 48.384C45.4827 47.2747 47.6587 45.6533 49.536 43.52L60.288 54.272C57.216 57.856 53.504 60.544 49.152 62.336C44.8 64.128 40.0213 65.024 34.816 65.024Z" fill="#464646"/>
<path d="M86.509 65.024C83.181 65.024 80.4077 63.872 78.189 61.568C75.9703 59.264 74.861 56.4907 74.861 53.248C74.861 49.8347 75.9703 47.0187 78.189 44.8C80.4077 42.496 83.181 41.344 86.509 41.344C89.9223 41.344 92.6957 42.496 94.829 44.8C97.0477 47.0187 98.157 49.8347 98.157 53.248C98.157 56.4907 97.0477 59.264 94.829 61.568C92.6957 63.872 89.9223 65.024 86.509 65.024Z" fill="#6495ED"/>
</g>
</svg>
